<svg xmlns="http://www.w3.org/2000/svg" viewBox="0 0 1280 320" width="1280" height="320" font-family="'Segoe UI',Helvetica,Arial,sans-serif">
  <defs>
    <linearGradient id="shield" x1="0" y1="0" x2="1" y2="1">
      <stop offset="0" stop-color="#667EEA"/>
      <stop offset="1" stop-color="#764BA2"/>
    </linearGradient>
    <linearGradient id="bg" x1="0" y1="0" x2="1" y2="0">
      <stop offset="0" stop-color="#0F1117"/>
      <stop offset="1" stop-color="#1A1D26"/>
    </linearGradient>
  </defs>
  <rect width="1280" height="320" fill="url(#bg)"/>
  <circle cx="1060" cy="170" r="250" fill="#667EEA" opacity="0.08"/>
  <circle cx="1190" cy="50" r="130" fill="#764BA2" opacity="0.10"/>

  <!-- shield -->
  <g transform="translate(150,162)">
    <path d="M0 -88 L72 -62 L72 18 Q72 80 0 106 Q-72 80 -72 18 L-72 -62 Z" fill="url(#shield)"/>
    <path d="M-31 6 L-8 31 L35 -29" fill="none" stroke="#FFFFFF" stroke-width="13" stroke-linecap="round" stroke-linejoin="round"/>
  </g>

  <text x="282" y="150" fill="#E2E8F0" font-size="76" font-weight="800">Stream AdBlock</text>
  <text x="286" y="198" fill="#8892A4" font-size="27" font-weight="500">Block streaming-app ads on Fire TV — DNS-level, no root required</text>

  <g font-size="22" font-weight="600">
    <rect x="286" y="226" rx="17" width="104" height="40" fill="#242736"/>
    <text x="338" y="252" fill="#F6AD55" text-anchor="middle">Hulu</text>
    <rect x="402" y="226" rx="17" width="92" height="40" fill="#242736"/>
    <text x="448" y="252" fill="#F6AD55" text-anchor="middle">Max</text>
    <rect x="506" y="226" rx="17" width="120" height="40" fill="#242736"/>
    <text x="566" y="252" fill="#667EEA" text-anchor="middle">Fire TV</text>
    <rect x="638" y="226" rx="17" width="150" height="40" fill="#242736"/>
    <text x="713" y="252" fill="#48BB78" text-anchor="middle">uBO lists</text>
  </g>
</svg>
